<svg data-logo="logo" xmlns="http://www.w3.org/2000/svg" viewBox="0 0 210 43">
    <g id="logogram" transform="translate(0, 1) rotate(0)" style="opacity: 1;">
        <path
            d="M0.452637 20.81C0.452637 9.76427 9.40694 0.809967 20.4526 0.809967H46.7026C57.7484 0.809967 66.7026 9.76427 66.7026 20.81V40.81H20.4526C9.40694 40.81 0.452637 31.8557 0.452637 20.81Z"
            fill="#800f2f"></path>
        <path
            d="M46.7026 8.30997H20.4526C13.5491 8.30997 7.95264 13.9064 7.95264 20.81C7.95264 27.7135 13.5491 33.31 20.4526 33.31H46.7026C53.6062 33.31 59.2026 27.7135 59.2026 20.81C59.2026 13.9064 53.6062 8.30997 46.7026 8.30997Z"
            fill="#fff0f3"></path>
        <path
            d="M20.4526 27.06C23.9044 27.06 26.7026 24.2617 26.7026 20.81C26.7026 17.3582 23.9044 14.56 20.4526 14.56C17.0009 14.56 14.2026 17.3582 14.2026 20.81C14.2026 24.2617 17.0009 27.06 20.4526 27.06Z"
            fill="black"></path>
        <path
            d="M17.9526 19.56C18.643 19.56 19.2026 19.0003 19.2026 18.31C19.2026 17.6196 18.643 17.06 17.9526 17.06C17.2623 17.06 16.7026 17.6196 16.7026 18.31C16.7026 19.0003 17.2623 19.56 17.9526 19.56Z"
            fill="white"></path>
        <path
            d="M47.9526 27.06C51.4044 27.06 54.2026 24.2617 54.2026 20.81C54.2026 17.3582 51.4044 14.56 47.9526 14.56C44.5009 14.56 41.7026 17.3582 41.7026 20.81C41.7026 24.2617 44.5009 27.06 47.9526 27.06Z"
            fill="black"></path>
        <path
            d="M45.4526 19.56C46.143 19.56 46.7026 19.0003 46.7026 18.31C46.7026 17.6196 46.143 17.06 45.4526 17.06C44.7623 17.06 44.2026 17.6196 44.2026 18.31C44.2026 19.0003 44.7623 19.56 45.4526 19.56Z"
            fill="white"></path>
    </g>
    <g id="logotype" transform="translate(73, 9)" style="opacity: 1;">
        <path fill="#a4133c"
            d="M8.17 25L8.17 0.43L15.14 0.43L23.26 20.38L20.84 20.73L29.00 0.43L35.93 0.43L35.93 25L30.01 25L30.01 4.66L31.97 4.98L24.45 25L19.69 25L12.16 4.98L14.09 4.66L14.09 25L8.17 25ZM48.56 25.25L48.56 25.25Q46.43 25.25 44.48 24.58Q42.54 23.91 41.05 22.64Q39.57 21.36 38.71 19.54Q37.85 17.72 37.85 15.37L37.85 15.37Q37.85 13.13 38.67 11.28Q39.50 9.42 40.91 8.06Q42.33 6.69 44.20 5.96Q46.08 5.22 48.18 5.22L48.18 5.22Q49.89 5.22 51.45 5.68Q53.01 6.13 54.25 7.01Q55.49 7.88 56.21 9.07Q56.93 10.26 56.93 11.73L56.93 11.73Q56.93 13.59 55.88 14.81Q54.83 16.04 53.13 16.74Q51.43 17.44 49.42 17.74Q47.41 18.04 45.45 18L45.45 18Q45.20 18 44.87 17.98Q44.54 17.96 44.26 17.95Q43.98 17.93 43.84 17.93L43.84 17.93Q44.05 18.73 44.73 19.38Q45.41 20.03 46.46 20.41Q47.51 20.80 48.63 20.80L48.63 20.80Q49.75 20.80 50.78 20.41Q51.82 20.03 52.66 19.43Q53.50 18.84 54.09 18.11L54.09 18.11L57.87 21.08Q56.82 22.48 55.32 23.41Q53.81 24.34 52.08 24.79Q50.35 25.25 48.56 25.25ZM45.48 14.11L45.48 14.11Q46.43 14.11 47.44 14.01Q48.46 13.90 49.31 13.64Q50.17 13.38 50.71 12.91Q51.26 12.43 51.26 11.70L51.26 11.70Q51.26 11.10 50.84 10.65Q50.42 10.19 49.72 9.95Q49.02 9.70 48.21 9.70L48.21 9.70Q46.81 9.70 45.76 10.37Q44.71 11.03 44.15 12.03Q43.59 13.03 43.52 14.04L43.52 14.04Q43.84 14.08 44.38 14.10Q44.92 14.11 45.48 14.11ZM68.97 25.25L68.97 25.25Q66.83 25.25 64.89 24.58Q62.95 23.91 61.46 22.64Q59.97 21.36 59.11 19.54Q58.26 17.72 58.26 15.37L58.26 15.37Q58.26 13.13 59.08 11.28Q59.90 9.42 61.32 8.06Q62.74 6.69 64.61 5.96Q66.48 5.22 68.58 5.22L68.58 5.22Q70.30 5.22 71.85 5.68Q73.41 6.13 74.65 7.01Q75.90 7.88 76.61 9.07Q77.33 10.26 77.33 11.73L77.33 11.73Q77.33 13.59 76.28 14.81Q75.23 16.04 73.53 16.74Q71.84 17.44 69.82 17.74Q67.81 18.04 65.85 18L65.85 18Q65.61 18 65.27 17.98Q64.94 17.96 64.66 17.95Q64.38 17.93 64.24 17.93L64.24 17.93Q64.45 18.73 65.13 19.38Q65.82 20.03 66.87 20.41Q67.92 20.80 69.04 20.80L69.04 20.80Q70.16 20.80 71.19 20.41Q72.22 20.03 73.06 19.43Q73.90 18.84 74.50 18.11L74.50 18.11L78.28 21.08Q77.23 22.48 75.72 23.41Q74.22 24.34 72.48 24.79Q70.75 25.25 68.97 25.25ZM65.89 14.11L65.89 14.11Q66.83 14.11 67.84 14.01Q68.86 13.90 69.72 13.64Q70.58 13.38 71.12 12.91Q71.66 12.43 71.66 11.70L71.66 11.70Q71.66 11.10 71.24 10.65Q70.82 10.19 70.12 9.95Q69.42 9.70 68.62 9.70L68.62 9.70Q67.22 9.70 66.17 10.37Q65.12 11.03 64.56 12.03Q64.00 13.03 63.93 14.04L63.93 14.04Q64.24 14.08 64.78 14.10Q65.33 14.11 65.89 14.11ZM88.18 25.25L88.18 25.25Q84.96 25.25 83.25 23.48Q81.53 21.71 81.53 18.35L81.53 18.35L81.53 10.26L78.42 10.26L78.42 5.47L91.33 5.47L91.33 10.26L87.45 10.26L87.45 18.42Q87.45 19.26 87.99 19.73Q88.53 20.20 89.30 20.20L89.30 20.20Q89.65 20.20 89.95 20.12Q90.25 20.03 90.53 19.86L90.53 19.86L92.00 24.20Q91.16 24.65 90.23 24.95Q89.30 25.25 88.18 25.25ZM85.24 5.47L79.96 7.04L79.96 5.47Q80.73 5.47 81.22 4.98Q81.71 4.49 81.71 3.72L81.71 3.72L81.71 0.71L87.45 0.71L87.45 2.81Q87.45 3.30 87.20 3.88Q86.96 4.45 86.45 4.89Q85.94 5.33 85.24 5.47L85.24 5.47ZM107.68 0.43L114.50 0.43L123.36 25L117.13 25L109.92 3.54L112.23 3.54L104.98 25L98.79 25L107.68 0.43ZM102.60 20.66L104.07 16.07L117.51 16.07L119.02 20.66L102.60 20.66ZM136.10 25L124.79 25L124.79 20.27L127.49 20.27L127.49 5.15L124.79 5.15L124.79 0.43L136.10 0.43L136.10 5.15L133.40 5.15L133.40 20.27L136.10 20.27L136.10 25Z"></path>
    </g>

</svg>